# xmcd
#
# Track frame offsets:
#	150
#	14610
#	34222
#	53580
#	73217
#	91615
#	108345
#	122760
#	141742
#	158300
#	175555
#	192790
#	210782
#	222897
#	238400
#
# Disc length: 3441 seconds
#
# Revision: 3
# Processed by: cddbd v1.5.2PL0 Copyright (c) Steve Scherf et al.
# Submitted via: EZCDAudioConverter 7.0.0.1
#
DISCID=ca0d6f0f
DTITLE=CLEITON and CAMARGO - AGENDA RABISCADA [CD 496481 2) EMI
DYEAR=1998
DGENRE=SERTANEJO
TTITLE0=O JOGO DAS PAIXÕES (BY GILMAR SINISTRO)
TTITLE1=AGENDA RABISCADA (BY GILMAR SINISTRO)
TTITLE2=ANJO DA MADRUGADA ( GILMAR SINISTRO)
TTITLE3=NA HORA DE AMAR (INSENSÍVEL)[SPENDING MY TIME] (BY GILMAR SINISTRO)
TTITLE4=MEU CORAÇÃO ESTÁ LIMPO (BY GILMAR SINISTRO)
TTITLE5=TEM QUE SER VOCÊ (BY GILMAR SINISTRO)
TTITLE6=TRAZ ELA DE VOLTA (BY GILMAR SINISTRO)
TTITLE7=FOI DEUS QUEM MANDOU A CHUVA (BY GILMAR SINISTRO)
TTITLE8=TEMPERO DE AMOR (PART. ESP. JAYNE) (BY GILMAR SINISTRO)
TTITLE9=SE EU QUISER UM GRANDE AMOR (BY GILMAR SINISTRO)
TTITLE10=FATO CONSUMADO (BY GILMAR SINISTRO)
TTITLE11=CHUVA DE AMOR (BY GILMAR SINISTRO)
TTITLE12=AONDE TEM RODEIO (BY GILMAR SINISTRO)
TTITLE13=AMOR E DESEJO (BY GILMAR SINISTRO)
TTITLE14=NÃO QUERO TE PERDER (BY GILMAR SINISTRO)
EXTD=
EXTT0=
EXTT1=
EXTT2=
EXTT3=
EXTT4=
EXTT5=
EXTT6=
EXTT7=
EXTT8=
EXTT9=
EXTT10=
EXTT11=
EXTT12=
EXTT13=
EXTT14=
PLAYORDER=
